<?xml version="1.0" encoding="UTF-8" standalone="no"?> <!-- Created with Vectornator for iOS (http://vectornator.io/) --><!DOCTYPE svg PUBLIC "-//W3C//DTD SVG 1.1//EN" "http://www.w3.org/Graphics/SVG/1.1/DTD/svg11.dtd">
<svg height="100%" style="fill-rule:nonzero;clip-rule:evenodd;stroke-linecap:round;stroke-linejoin:round;" xmlns:xlink="http://www.w3.org/1999/xlink" xmlns="http://www.w3.org/2000/svg" xml:space="preserve" width="100%" xmlns:vectornator="http://vectornator.io" version="1.1" viewBox="0 0 1770.45 314.38">
<metadata>
<vectornator:setting key="DimensionsVisible" value="0"/>
<vectornator:setting key="PencilOnly" value="0"/>
<vectornator:setting key="SnapToPoints" value="0"/>
<vectornator:setting key="OutlineMode" value="0"/>
<vectornator:setting key="CMYKEnabledKey" value="0"/>
<vectornator:setting key="RulersVisible" value="1"/>
<vectornator:setting key="SnapToEdges" value="0"/>
<vectornator:setting key="GuidesVisible" value="1"/>
<vectornator:setting key="DisplayWhiteBackground" value="0"/>
<vectornator:setting key="doHistoryDisabled" value="0"/>
<vectornator:setting key="SnapToGuides" value="1"/>
<vectornator:setting key="TimeLapseWatermarkDisabled" value="0"/>
<vectornator:setting key="Units" value="Points"/>
<vectornator:setting key="DynamicGuides" value="1"/>
<vectornator:setting key="IsolateActiveLayer" value="0"/>
<vectornator:setting key="SnapToGrid" value="0"/>
</metadata>
<defs/>
<g id="Untitled" vectornator:layerName="Untitled">
<path d="M152.203+111.506L102.16+111.506C100.759+111.506+99.6228+110.369+99.6228+108.967L99.6228+76.5671C99.6228+75.1649+100.759+74.0282+102.16+74.0282L255.434+74.0282C256.835+74.0282+257.971+75.1649+257.971+76.5671L257.971+108.967C257.971+110.369+256.835+111.506+255.434+111.506L205.392+111.506C203.991+111.506+202.854+112.642+202.854+114.046L202.854+246.694C202.854+248.097+201.718+249.234+200.317+249.234L157.279+249.234C155.877+249.234+154.741+248.097+154.741+246.694L154.741+114.046C154.741+112.642+153.604+111.506+152.203+111.506" opacity="1" fill="#222f3e"/>
<path d="M290.251+74.028L333.29+74.028C334.691+74.028+335.827+75.1647+335.827+76.5669L335.827+246.694C335.827+248.097+334.691+249.234+333.29+249.234L290.251+249.234C288.849+249.234+287.713+248.097+287.713+246.694L287.713+76.5669C287.713+75.1647+288.849+74.028+290.251+74.028" opacity="1" fill="#222f3e"/>
<path d="M417.435+240.855C402.613+233.036+390.941+222.22+382.416+208.403C373.889+194.59+369.626+179.05+369.626+161.782C369.626+144.521+373.889+128.928+382.416+115.01C390.941+101.099+402.613+90.2305+417.435+82.4063C432.251+74.5911+448.9+70.6755+467.372+70.6755C484.224+70.6755+498.785+73.2194+511.072+78.2932C522.654+83.0848+532.747+90.5845+541.354+100.792C542.228+101.83+542.108+103.391+541.105+104.305L513.76+129.253C512.705+130.215+511.084+130.092+510.137+129.024C498.881+116.329+485.232+109.983+469.201+109.983C454.382+109.983+442.145+114.759+432.509+124.304C422.861+133.856+418.043+146.349+418.043+161.782C418.043+171.944+420.223+180.933+424.589+188.749C428.951+196.573+435.042+202.612+442.858+206.88C450.674+211.145+459.457+213.278+469.201+213.278C485.232+213.278+498.881+206.932+510.137+194.238C511.084+193.169+512.705+193.047+513.76+194.008L541.108+218.958C542.11+219.872+542.232+221.431+541.36+222.468C532.928+232.487+522.834+239.934+511.072+244.814C498.587+249.995+484.016+252.586+467.372+252.586C448.9+252.586+432.251+248.676+417.435+240.855" opacity="1" fill="#222f3e"/>
<path d="M708.954+214.905L708.954+246.694C708.954+248.097+707.819+249.234+706.417+249.234L570.501+249.234C569.101+249.234+567.964+248.097+567.964+246.694L567.964+76.5669C567.964+75.1647+569.101+74.028+570.501+74.028L703.069+74.028C704.471+74.028+705.607+75.1647+705.607+76.5669L705.607+108.357C705.607+109.759+704.471+110.896+703.069+110.896L618.005+110.896C616.603+110.896+615.467+112.033+615.467+113.436L615.467+140.353C615.467+141.755+616.603+142.892+618.005+142.892L692.715+142.892C694.116+142.892+695.253+144.028+695.253+145.431L695.253+175.393C695.253+176.795+694.116+177.932+692.715+177.932L618.005+177.932C616.603+177.932+615.467+179.069+615.467+180.471L615.467+209.826C615.467+211.229+616.603+212.366+618.005+212.366L706.417+212.366C707.819+212.366+708.954+213.502+708.954+214.905" opacity="1" fill="#222f3e"/>
<path d="M745.683+249.58C749.027+249.612+752.236+248.261+754.55+245.846C756.997+243.458+758.348+240.164+758.283+236.746C758.36+233.359+757.005+230.097+754.55+227.763C752.203+225.411+749.006+224.106+745.683+224.146C742.392+224.092+739.225+225.401+736.933+227.763C734.539+230.129+733.23+233.38+733.316+236.746C733.242+240.143+734.547+243.426+736.933+245.846C739.191+248.27+742.37+249.627+745.683+249.58C745.683+249.58+745.683+249.58+745.683+249.58ZM826.414+249.58C842.281+249.58+854.686+246.43+863.631+240.13C872.576+233.83+877.048+225.313+877.047+214.58C877.047+206.646+874.947+200.424+870.747+195.913C866.619+191.448+861.388+188.148+855.581+186.346C847.837+184.038+839.969+182.168+832.014+180.746C825.725+179.712+819.494+178.349+813.347+176.663C809.145+175.512+805.269+173.395+802.031+170.48C798.957+167.586+797.296+163.497+797.481+159.28C797.481+153.213+800.164+148.313+805.531+144.58C810.898+140.846+818.87+138.98+829.447+138.98C843.447+138.98+855.503+142.48+865.614+149.48L872.847+136.18C867.714+132.76+861.18+129.998+853.247+127.896C845.484+125.818+837.483+124.759+829.447+124.746C814.201+124.746+802.301+128.012+793.747+134.546C785.193+141.079+780.915+149.479+780.914+159.746C780.914+167.992+783.053+174.448+787.331+179.113C791.535+183.733+796.889+187.155+802.847+189.03C810.736+191.415+818.762+193.324+826.881+194.746C832.938+195.686+838.937+196.971+844.847+198.596C848.958+199.708+852.779+201.699+856.047+204.43C859.001+206.996+860.479+210.534+860.481+215.046C860.67+221.076+857.593+226.74+852.431+229.863C847.064+233.363+838.781+235.113+827.581+235.113C819.338+235.138+811.144+233.838+803.314+231.263C796.331+229.109+789.777+225.753+783.947+221.346L776.481+234.413C781.614+238.77+788.731+242.387+797.831+245.263C807.08+248.164+816.721+249.621+826.414+249.58C826.414+249.58+826.414+249.58+826.414+249.58ZM951.947+249.58C963.124+249.743+974.148+246.967+983.914+241.53C993.259+236.305+1000.97+228.591+1006.2+219.246C1011.56+209.76+1014.25+199.026+1014.25+187.046C1014.25+175.065+1011.56+164.332+1006.2+154.846C1000.99+145.518+993.269+137.839+983.914+132.68C963.915+122.101+939.979+122.101+919.98+132.68C910.607+137.855+902.853+145.528+897.58+154.846C892.05+164.665+889.232+175.778+889.414+187.046C889.414+199.026+892.136+209.759+897.58+219.246C902.869+228.582+910.617+236.289+919.98+241.53C929.746+246.968+940.77+249.744+951.947+249.58C951.947+249.58+951.947+249.58+951.947+249.58ZM951.947+234.88C943.741+235.009+935.648+232.956+928.497+228.93C921.561+224.95+915.897+219.084+912.164+212.013C904.231+196.314+904.231+177.779+912.164+162.08C915.898+155.009+921.562+149.143+928.497+145.163C943.124+137.229+960.77+137.229+975.397+145.163C982.315+149.127+987.945+155+991.614+162.08C995.597+169.79+997.601+178.369+997.447+187.046C997.601+195.723+995.597+204.302+991.614+212.013C987.946+219.092+982.316+224.966+975.397+228.93C968.245+232.955+960.153+235.009+951.947+234.88C951.947+234.88+951.947+234.88+951.947+234.88ZM1134.53+229.63C1138.18+233.443+1143.43+235.348+1150.28+235.346C1153.65+235.354+1157.01+234.802+1160.2+233.713C1163.24+232.709+1166.05+231.124+1168.48+229.046L1174.31+240.946C1170.96+243.881+1167.02+246.069+1162.76+247.363C1158.12+248.848+1153.28+249.596+1148.41+249.58C1136.9+249.58+1128.03+246.468+1121.81+240.246C1115.59+234.023+1112.48+225.234+1112.48+213.88L1112.48+139.68L1055.78+139.68L1055.78+248.413L1039.21+248.413L1039.21+139.68L1017.28+139.68L1017.28+125.68L1039.21+125.68L1039.21+110.513C1039.21+99.3126+1042.44+90.446+1048.9+83.9126C1055.35+77.3793+1064.49+74.1126+1076.31+74.1126C1080.9+74.1019+1085.46+74.7702+1089.85+76.0956C1093.85+77.2358+1097.58+79.1812+1100.81+81.8126L1095.21+94.1796C1090.39+90.1363+1084.32+88.114+1077.01+88.1126C1069.85+88.1126+1064.45+90.057+1060.79+93.9456C1057.14+97.8343+1055.31+103.59+1055.31+111.213L1055.31+125.68L1112.48+125.68L1112.48+98.8456L1129.05+98.8456L1129.05+125.68L1166.38+125.68L1166.38+139.68L1129.05+139.68L1129.05+212.946C1129.05+220.26+1130.88+225.821+1134.53+229.63ZM1361.21+125.68L1322.24+229.98L1283.04+125.68L1268.81+125.68L1229.38+229.98L1190.88+125.68L1175.01+125.68L1221.21+248.413L1236.84+248.413L1275.58+147.846L1314.31+248.413L1329.94+248.413L1376.38+125.68C1376.38+125.68+1361.21+125.68+1361.21+125.68ZM1428.88+124.746C1419.53+124.699+1410.23+126.157+1401.35+129.063C1393.16+131.653+1385.55+135.814+1378.95+141.313L1386.41+153.68C1391.83+149.005+1398.09+145.402+1404.85+143.063C1412.04+140.49+1419.62+139.187+1427.25+139.213C1438.6+139.213+1447.23+141.974+1453.15+147.496C1459.07+153.018+1462.02+161.068+1462.01+171.646L1462.01+179.113L1423.05+179.113C1406.56+179.113+1394.54+182.302+1387+188.68C1379.46+195.058+1375.68+203.458+1375.68+213.88C1375.68+224.613+1379.72+233.246+1387.81+239.78C1395.9+246.313+1406.79+249.58+1420.48+249.58C1430.43+249.58+1439.02+247.791+1446.26+244.213C1453.11+240.989+1458.84+235.788+1462.71+229.28L1462.71+248.413L1478.58+248.413L1478.58+172.346C1478.58+156.636+1474.3+144.775+1465.75+136.763C1457.2+128.751+1444.91+124.745+1428.88+124.746C1428.88+124.746+1428.88+124.746+1428.88+124.746ZM1423.05+236.513C1413.25+236.513+1405.63+234.452+1400.18+230.33C1394.73+226.208+1392.01+220.569+1392.01+213.413C1392.01+198.793+1402.51+191.482+1423.51+191.48L1462.01+191.48L1462.01+211.546C1459.13+219.16+1453.9+225.658+1447.08+230.096C1440.39+234.376+1432.38+236.515+1423.05+236.513C1423.05+236.513+1423.05+236.513+1423.05+236.513ZM1516.14+149.713L1516.14+125.68L1500.28+125.68L1500.28+248.413L1516.84+248.413L1516.84+185.88C1516.84+171.57+1520.5+160.447+1527.81+152.513C1535.12+144.578+1545.23+140.611+1558.14+140.613L1562.11+140.846L1562.11+124.746C1550.75+124.746+1541.22+126.846+1533.53+131.046C1525.86+135.213+1519.75+141.766+1516.14+149.713C1516.14+149.713+1516.14+149.713+1516.14+149.713ZM1680.41+187.046C1680.41+174.912+1677.84+164.14+1672.71+154.73C1667.81+145.558+1660.46+137.925+1651.48+132.68C1632.43+122.101+1609.28+122.101+1590.23+132.68C1581.16+137.938+1573.73+145.612+1568.76+154.846C1563.55+164.336+1560.95+175.069+1560.95+187.046C1560.95+199.022+1563.67+209.756+1569.11+219.246C1574.47+228.648+1582.35+236.366+1591.86+241.53C1601.58+246.896+1612.74+249.579+1625.35+249.58C1634.59+249.689+1643.75+247.943+1652.3+244.446C1660.22+241.202+1667.22+236.076+1672.71+229.513L1663.38+218.78C1658.83+223.982+1653.17+228.09+1646.81+230.796C1640.16+233.572+1633.01+234.962+1625.81+234.88C1612.28+234.88+1601.08+230.952+1592.21+223.096C1583.35+215.242+1578.45+204.937+1577.51+192.18L1680.18+192.18L1680.41+187.046ZM1620.91+138.98C1632.89+138.98+1642.89+142.752+1650.9+150.296C1658.91+157.84+1663.46+167.679+1664.55+179.813L1577.51+179.813C1578.6+167.679+1583.15+157.84+1591.16+150.296C1599.17+142.751+1609.09+138.979+1620.91+138.98C1620.91+138.98+1620.91+138.98+1620.91+138.98Z" opacity="1" fill="#576574"/>
</g>
</svg>
